<?xml version="1.0" encoding="utf-8"?>
<!-- Generator: Adobe Illustrator 22.0.1, SVG Export Plug-In . SVG Version: 6.00 Build 0)  -->
<svg version="1.1" id="Layer_1" xmlns="http://www.w3.org/2000/svg" xmlns:xlink="http://www.w3.org/1999/xlink" x="0px" y="0px"
	 viewBox="0 0 512 512" style="enable-background:new 0 0 512 512;" xml:space="preserve">
<style type="text/css">
	.st0{fill:#FFB100;}
</style>
<g transform="matrix(-1 1.22465e-16 -1.22465e-16 -1 492 492)">
	<g>
		<g>
			<path class="st0" d="M463.2,195.8l0.8,0.2H121.4L229.1,88.1c5.3-5.3,8.2-12.4,8.2-19.9c0-7.5-2.9-14.6-8.2-19.9l-16.8-16.8
				c-5.3-5.3-12.3-8.2-19.8-8.2c-7.5,0-14.5,2.9-19.8,8.2L-11.8,216.1c-5.3,5.3-8.2,12.3-8.2,19.8c0,7.5,2.9,14.6,8.2,19.9
				l184.6,184.6c5.3,5.3,12.3,8.2,19.8,8.2c7.5,0,14.5-2.9,19.8-8.2l16.8-16.8c5.3-5.3,8.2-12.3,8.2-19.8c0-7.5-2.9-14.1-8.2-19.4
				L120.2,276h343.4c15.4,0,28.4-13.3,28.4-28.7v-23.7C492,208.1,478.7,195.8,463.2,195.8z"/>
		</g>
	</g>
</g>
</svg>
