<svg xmlns="http://www.w3.org/2000/svg" viewBox="0 0 684.73 88.21"><title>logo-black</title><g id="Layer_2" data-name="Layer 2"><g id="Layer_1-2" data-name="Layer 1"><path d="M169.37,76.52V17.58a1.82,1.82,0,0,1,2.06-2.06H195c5.17,0,9.15,1.37,12,4.12s4.21,6.67,4.21,11.76v4q0,8.32-7.74,10.78a10.26,10.26,0,0,1,6.27,3.19Q212,52,212,56.8v5.89q0,7.65-4.22,11.77T196,78.58H171.43A1.82,1.82,0,0,1,169.37,76.52Zm13.54-35.41h10a6.77,6.77,0,0,0,4.61-1.32c1-.88,1.47-2.34,1.47-4.36V31.6c0-2-.47-3.48-1.42-4.36s-2.47-1.33-4.56-1.33h-10.1A1,1,0,0,0,181.83,27V40A1,1,0,0,0,182.91,41.11Zm0,27.07h11c2.16,0,3.71-.44,4.66-1.32S200,64.52,200,62.49V56.8c0-2-.49-3.46-1.47-4.31s-2.58-1.27-4.8-1.27H182.91a1,1,0,0,0-1.08,1.07V67.1A1,1,0,0,0,182.91,68.18Z"/><path d="M246.75,78.58H238q-7.74,0-12-4.12t-4.22-11.87v-18q0-7.75,4.22-11.87t12-4.12h8.73q7.65,0,11.92,4.17t4.26,11.82v18q0,7.65-4.26,11.82T246.75,78.58Zm-6.86-10.69h5c2.09,0,3.58-.43,4.46-1.28s1.32-2.32,1.32-4.41V44.94q0-3.13-1.32-4.41c-.88-.85-2.37-1.28-4.46-1.28h-5c-2.1,0-3.57.43-4.42,1.28s-1.27,2.32-1.27,4.41V62.2c0,2.09.42,3.56,1.27,4.41S237.79,67.89,239.89,67.89Z"/><path d="M296.67,78.58h-8.73q-7.76,0-12-4.12t-4.22-11.87v-18q0-7.75,4.22-11.87t12-4.12h8.73q7.65,0,11.91,4.17t4.27,11.82v18q0,7.65-4.27,11.82T296.67,78.58ZM289.8,67.89h5c2.09,0,3.57-.43,4.46-1.28s1.32-2.32,1.32-4.41V44.94q0-3.13-1.32-4.41c-.89-.85-2.37-1.28-4.46-1.28h-5c-2.09,0-3.56.43-4.41,1.28s-1.27,2.32-1.27,4.41V62.2c0,2.09.42,3.56,1.27,4.41S287.71,67.89,289.8,67.89Z"/><path d="M341.58,78.58H323c-1.31,0-2-.69-2-2.06V70.24a2.31,2.31,0,0,1,.39-1.52,2.12,2.12,0,0,1,1.57-.44h16.38q4.8,0,4.8-2.94v-.49c0-1.57-1.34-3.08-4-4.51l-9.71-5.4a22.25,22.25,0,0,1-7.35-5.49,11.71,11.71,0,0,1-2.36-7.55q0-6.87,3.63-10.1t11.38-3.24h16.38c1.3,0,2,.69,2,2.06V37a2.33,2.33,0,0,1-.39,1.53,2.13,2.13,0,0,1-1.57.44H338.45c-3.21,0-4.81.81-4.81,2.45v.49q0,2.16,4.22,4.41l9.9,5.89q5.1,2.74,7.16,5.63A12.88,12.88,0,0,1,357,65.44Q357,78.58,341.58,78.58Z"/><path d="M366.69,39.35h-3.92a2.49,2.49,0,0,1-1.62-.39,2.07,2.07,0,0,1-.44-1.57V30.62a1.82,1.82,0,0,1,2.06-2.06h3.92a1,1,0,0,0,1.08-1.08V18.17c0-1.38.72-2.06,2.15-2.06h8.24a1.82,1.82,0,0,1,2.06,2.06v9.31c0,.72.39,1.08,1.18,1.08h7.65a1.82,1.82,0,0,1,2.06,2.06v6.77a2.14,2.14,0,0,1-.44,1.52,2.33,2.33,0,0,1-1.62.44H381.4c-.79,0-1.18.36-1.18,1.08V62.1c0,2,.46,3.48,1.38,4.36s2.41,1.33,4.51,1.33H390a1.82,1.82,0,0,1,2.06,2.06v6.77a2.09,2.09,0,0,1-.44,1.51,2.27,2.27,0,0,1-1.62.45h-6q-7.76,0-12-4.12t-4.26-11.77V40.43A1,1,0,0,0,366.69,39.35Z"/><path d="M410.62,78.58h-8.33a1.82,1.82,0,0,1-2.06-2.06V30.62a1.82,1.82,0,0,1,2.06-2.06h8.33a1.82,1.82,0,0,1,2.06,2.06v3.24h.4a8.79,8.79,0,0,1,4-3.83,13.57,13.57,0,0,1,6.42-1.47h2.75q8.53,0,12.26,6.28,3.33-6.29,11.47-6.28h2.84q7.56,0,11.43,4.12t3.87,11.87v32A1.82,1.82,0,0,1,466,78.58H457.7a1.82,1.82,0,0,1-2.06-2.06V45.13c0-2.09-.43-3.57-1.28-4.46S452,39.35,450,39.35H447.5q-6.76,0-6.77,7.55V76.52c0,1.37-.72,2.06-2.16,2.06h-8.23a1.82,1.82,0,0,1-2.06-2.06V45.13c0-2.09-.44-3.57-1.33-4.46s-2.37-1.32-4.46-1.32h-3q-6.76,0-6.77,7.45V76.52A1.82,1.82,0,0,1,410.62,78.58Z"/><path d="M496,78.58h-2.35q-7.76,0-12-4.12t-4.21-11.87v-18q0-7.75,4.21-11.87t12-4.12h22.65c1.44,0,2.16.69,2.16,2.06v45.9c0,1.37-.72,2.06-2.16,2.06h-8.23a1.82,1.82,0,0,1-2.06-2.06V73.28h-.4a7.4,7.4,0,0,1-3.82,4A13.21,13.21,0,0,1,496,78.58Zm10-18.24V40.43c0-.72-.4-1.08-1.18-1.08h-9.22q-3.13,0-4.41,1.32c-.85.89-1.28,2.37-1.28,4.46V62c0,2.1.43,3.58,1.28,4.46s2.32,1.33,4.41,1.33h3.63Q506,67.79,506.05,60.34Z"/><path d="M539.68,78.58h-8.33a1.82,1.82,0,0,1-2.06-2.06V30.62a1.82,1.82,0,0,1,2.06-2.06h8.33a1.82,1.82,0,0,1,2.06,2.06V34h.39a7.69,7.69,0,0,1,3.83-4,12.84,12.84,0,0,1,5.79-1.37h3.53c1.3,0,2,.69,2,2.06v6.77A2.33,2.33,0,0,1,556.8,39a1.9,1.9,0,0,1-1.52.34h-6.77q-6.76,0-6.77,7.65V76.52A1.82,1.82,0,0,1,539.68,78.58Z"/><path d="M573.91,78.58h-8.34a1.82,1.82,0,0,1-2.06-2.06V11.69a1.82,1.82,0,0,1,2.06-2.06h8.34A1.82,1.82,0,0,1,576,11.69V76.52A1.82,1.82,0,0,1,573.91,78.58Zm18.24-50h9.51a1.64,1.64,0,0,1,1.57.69,1.68,1.68,0,0,1-.29,1.76l-13,21.48v.39l13.63,23.25a1.52,1.52,0,0,1,.1,1.71,2,2,0,0,1-1.77.74h-8.43a5.29,5.29,0,0,1-2.41-.4,4.54,4.54,0,0,1-1.52-1.66L577.05,54.65a3.19,3.19,0,0,1,0-3.24l11.77-20.89A3.57,3.57,0,0,1,592.15,28.56Z"/><path d="M646.68,78.58H625q-7.74,0-12-4.12t-4.22-11.87v-18q0-7.75,4.22-11.87t12-4.12h7.75q7.75,0,12,4.12t4.22,11.87V57a1.82,1.82,0,0,1-2.06,2.06H622.26c-.79,0-1.18.36-1.18,1.08V62.3c0,2,.44,3.48,1.32,4.36S624.77,68,626.87,68h19.81c1.37,0,2.06.73,2.06,2.16v6.48a2,2,0,0,1-.45,1.51A2.23,2.23,0,0,1,646.68,78.58ZM622.26,50.72h13.33a1,1,0,0,0,1.08-1.07V44.94c0-2.09-.42-3.56-1.27-4.41s-2.32-1.28-4.41-1.28h-4.12c-2.1,0-3.57.43-4.42,1.28s-1.27,2.32-1.27,4.41v4.71A1,1,0,0,0,622.26,50.72Z"/><path d="M659.33,39.35H655.4a2.47,2.47,0,0,1-1.61-.39,2.07,2.07,0,0,1-.45-1.57V30.62a1.82,1.82,0,0,1,2.06-2.06h3.93a1,1,0,0,0,1.08-1.08V18.17c0-1.38.71-2.06,2.15-2.06h8.24a1.82,1.82,0,0,1,2.06,2.06v9.31c0,.72.39,1.08,1.18,1.08h7.65a1.82,1.82,0,0,1,2.06,2.06v6.77a2.09,2.09,0,0,1-.45,1.52,2.28,2.28,0,0,1-1.61.44H674c-.79,0-1.18.36-1.18,1.08V62.1c0,2,.46,3.48,1.37,4.36s2.42,1.33,4.51,1.33h3.93a1.82,1.82,0,0,1,2.06,2.06v6.77a2.09,2.09,0,0,1-.44,1.51,2.27,2.27,0,0,1-1.62.45h-6q-7.74,0-12-4.12t-4.26-11.77V40.43A1,1,0,0,0,659.33,39.35Z"/><path d="M70.46,85.9a5.14,5.14,0,0,0,4,2.31h27a5.1,5.1,0,0,0,4-2.31l13.45-23.35a5,5,0,0,0,0-4.6L105.37,34.61a5.1,5.1,0,0,0-4-2.32h-27a5.08,5.08,0,0,0-4,2.32L57,58a5,5,0,0,0,0,4.6Z"/><path d="M14,54a5.1,5.1,0,0,0,4,2.32H45A5.08,5.08,0,0,0,49,54L62.46,30.62a5,5,0,0,0,0-4.6L49,2.67A5.14,5.14,0,0,0,45,.36H18a5.08,5.08,0,0,0-4,2.31L.56,26a5,5,0,0,0,0,4.6Zm6.35-40.31a5.14,5.14,0,0,1,4-2.31H38.63a5.08,5.08,0,0,1,4,2.31L49.77,26a5,5,0,0,1,0,4.6L42.65,43a5.13,5.13,0,0,1-4,2.32H24.41a5.08,5.08,0,0,1-4-2.32L13.29,30.62a5,5,0,0,1,0-4.6Z"/><path d="M57.72,0l12.8,22.18a5.12,5.12,0,0,0,4,2.31h27a5.05,5.05,0,0,0,4-2.31L118.27,0Z"/><path d="M61.44,88.12,49,66.54a5.12,5.12,0,0,0-4-2.31H18a5.05,5.05,0,0,0-4,2.31L1.58,88.12Z"/></g></g></svg>